<svg width="14" height="14" viewBox="0 0 14 14" fill="none" xmlns="http://www.w3.org/2000/svg">
<g clip-path="url(#clip0)">
<path d="M6.99999 13.2211C6.80068 13.2211 6.60852 13.1489 6.45877 13.0177C5.89321 12.5232 5.34794 12.0585 4.86686 11.6485L4.8644 11.6464C3.45396 10.4444 2.23599 9.40645 1.38855 8.38394C0.441238 7.24085 0 6.15703 0 4.97303C0 3.82267 0.394454 2.76139 1.11062 1.98456C1.83534 1.19853 2.82975 0.765625 3.911 0.765625C4.71914 0.765625 5.45923 1.02112 6.11068 1.52495C6.43944 1.77926 6.73744 2.09051 6.99999 2.45356C7.26264 2.09051 7.56053 1.77926 7.8894 1.52495C8.54085 1.02112 9.28094 0.765625 10.0891 0.765625C11.1702 0.765625 12.1647 1.19853 12.8895 1.98456C13.6056 2.76139 14 3.82267 14 4.97303C14 6.15703 13.5588 7.24085 12.6115 8.38384C11.7641 9.40645 10.5462 10.4443 9.136 11.6462C8.65407 12.0568 8.10794 12.5222 7.54109 13.018C7.39145 13.1489 7.19919 13.2211 6.99999 13.2211ZM3.911 1.58572C3.06153 1.58572 2.28117 1.92474 1.71347 2.5404C1.13733 3.16535 0.819991 4.02924 0.819991 4.97303C0.819991 5.96883 1.19009 6.85942 2.01991 7.86067C2.82195 8.82849 4.01493 9.84512 5.39621 11.0223L5.39878 11.0244C5.88167 11.436 6.42908 11.9025 6.99881 12.4007C7.57196 11.9016 8.12022 11.4343 8.60408 11.0221C9.98526 9.84491 11.1781 8.82849 11.9802 7.86067C12.8099 6.85942 13.18 5.96883 13.18 4.97303C13.18 4.02924 12.8626 3.16535 12.2865 2.5404C11.7189 1.92474 10.9384 1.58572 10.0891 1.58572C9.46679 1.58572 8.89546 1.78354 8.39099 2.17361C7.94142 2.52139 7.62825 2.96102 7.44464 3.26864C7.35022 3.42683 7.18402 3.52125 6.99999 3.52125C6.81595 3.52125 6.64975 3.42683 6.55533 3.26864C6.37183 2.96102 6.05866 2.52139 5.60898 2.17361C5.10451 1.78354 4.53318 1.58572 3.911 1.58572Z" fill="#ABABAB"/>
</g>
<defs>
<clipPath id="clip0">
<rect width="14" height="14" fill="white"/>
</clipPath>
</defs>
</svg>
