<svg width="14" height="14" viewBox="0 0 14 14" fill="none" xmlns="http://www.w3.org/2000/svg">
<path d="M0.00123224 7.00159C0.0183652 7.29 0.209684 7.53272 0.486667 7.61553L5.61514 9.16606L5.80361 12.7012C5.81217 12.8411 5.9064 12.9639 6.04061 13.0096C6.07773 13.0238 6.11771 13.0296 6.15483 13.0296C6.25478 13.0296 6.34901 12.9896 6.41754 12.9125L8.23078 10.9051L10.8007 12.684C10.915 12.764 11.0492 12.8068 11.1891 12.8068C11.5117 12.8068 11.7916 12.5784 11.8601 12.2586L13.9932 1.38768C14.0189 1.26204 13.9703 1.13069 13.8732 1.05073C13.7733 0.967922 13.6391 0.947933 13.5192 0.996477L0.412424 6.33055C0.146863 6.45048 -0.0159008 6.71319 0.00123224 7.00159ZM6.45466 11.8245L6.33758 9.59439L7.65111 10.5024L6.45466 11.8245ZM11.1777 12.0958L6.50035 8.85767L13.0594 2.51275L11.1777 12.0958ZM12.3398 2.23291L5.85501 8.50644L0.73224 6.95876L12.3398 2.23291Z" fill="#ABABAB"/>
</svg>
